v  -0.917 0.458 0.211
v  -0.617 0.458 0.211
v  -0.617 -0.458 0.211
v  -0.917 -0.458 0.211
v  -0.617 -0.458 0.501
v  -0.617 0.458 0.501
v  -0.917 0.458 0.501
v  -0.917 -0.458 0.501
v  0.917 -0.458 0.211
v  0.917 0.458 0.211
v  0.917 0.458 0.501
v  0.917 -0.458 0.501
v  0.617 0.458 0.211
v  0.617 0.458 0.501
v  0.617 -0.458 0.211
v  0.617 -0.458 0.501
v  -0.251 -0.366 0.964
v  0.251 -0.366 0.964
v  0.251 0.366 0.964
v  -0.251 0.366 0.964
v  0.623 0.411 0.020
v  0.548 0.411 0.000
v  0.472 0.411 0.020
v  0.417 0.411 0.076
v  0.397 0.411 0.151
v  0.417 0.411 0.226
v  0.472 0.411 0.282
v  0.548 0.411 0.302
v  0.623 0.411 0.282
v  0.678 0.411 0.226
v  0.698 0.411 0.151
v  0.678 0.411 0.076
v  0.678 0.276 0.226
v  0.698 0.276 0.151
v  0.623 0.276 0.282
v  0.548 0.276 0.302
v  0.472 0.276 0.282
v  0.417 0.276 0.226
v  0.397 0.276 0.151
v  0.417 0.276 0.076
v  0.472 0.276 0.020
v  0.548 0.276 0.000
v  0.623 0.276 0.020
v  0.678 0.276 0.076
v  0.623 -0.262 0.020
v  0.548 -0.262 0.000
v  0.472 -0.262 0.020
v  0.417 -0.262 0.076
v  0.397 -0.262 0.151
v  0.417 -0.262 0.226
v  0.472 -0.262 0.282
v  0.548 -0.262 0.302
v  0.623 -0.262 0.282
v  0.678 -0.262 0.226
v  0.698 -0.262 0.151
v  0.678 -0.262 0.076
v  0.678 -0.396 0.226
v  0.698 -0.396 0.151
v  0.623 -0.396 0.282
v  0.548 -0.396 0.302
v  0.472 -0.396 0.282
v  0.417 -0.396 0.226
v  0.397 -0.396 0.151
v  0.417 -0.396 0.076
v  0.472 -0.396 0.020
v  0.548 -0.396 0.000
v  0.623 -0.396 0.020
v  0.678 -0.396 0.076
v  -0.483 0.411 0.020
v  -0.559 0.411 0.000
v  -0.634 0.411 0.020
v  -0.690 0.411 0.076
v  -0.710 0.411 0.151
v  -0.690 0.411 0.226
v  -0.634 0.411 0.282
v  -0.559 0.411 0.302
v  -0.483 0.411 0.282
v  -0.428 0.411 0.226
v  -0.408 0.411 0.151
v  -0.428 0.411 0.076
v  -0.428 0.276 0.226
v  -0.408 0.276 0.151
v  -0.483 0.276 0.282
v  -0.559 0.276 0.302
v  -0.634 0.276 0.282
v  -0.690 0.276 0.226
v  -0.710 0.276 0.151
v  -0.690 0.276 0.076
v  -0.634 0.276 0.020
v  -0.559 0.276 0.000
v  -0.483 0.276 0.020
v  -0.428 0.276 0.076
v  -0.483 -0.262 0.020
v  -0.559 -0.262 0.000
v  -0.634 -0.262 0.020
v  -0.690 -0.262 0.076
v  -0.710 -0.262 0.151
v  -0.690 -0.262 0.226
v  -0.634 -0.262 0.282
v  -0.559 -0.262 0.302
v  -0.483 -0.262 0.282
v  -0.428 -0.262 0.226
v  -0.408 -0.262 0.151
v  -0.428 -0.262 0.076
v  -0.428 -0.396 0.226
v  -0.408 -0.396 0.151
v  -0.483 -0.396 0.282
v  -0.559 -0.396 0.302
v  -0.634 -0.396 0.282
v  -0.690 -0.396 0.226
v  -0.710 -0.396 0.151
v  -0.690 -0.396 0.076
v  -0.634 -0.396 0.020
v  -0.559 -0.396 0.000
v  -0.483 -0.396 0.020
v  -0.428 -0.396 0.076

vn 0.000 0.000 -1.000
vn 0.000 0.000 1.000
vn 0.000 -1.000 0.000
vn 1.000 0.000 0.000
vn 0.000 1.000 0.000
vn -1.000 0.000 0.000
vn -0.785 0.000 0.620
vn 0.000 -0.981 0.195
vn 0.785 0.000 0.620
vn 0.000 0.981 0.195
vn -0.000 1.000 0.000
vn -0.000 1.000 -0.000
vn 0.000 1.000 -0.000
vn 1.000 0.000 -0.000
vn 0.866 -0.000 0.500
vn 0.500 -0.000 0.866
vn -0.000 -0.000 1.000
vn -0.500 -0.000 0.866
vn -0.866 -0.000 0.500
vn -1.000 -0.000 0.000
vn -0.866 0.000 -0.500
vn -0.500 0.000 -0.866
vn -0.000 0.000 -1.000
vn 0.500 0.000 -0.866
vn 0.866 0.000 -0.500
vn -0.000 -1.000 -0.000
vn 0.000 -1.000 -0.000
vn 1.000 -0.000 -0.000
vn 0.000 -0.000 1.000
vn -1.000 0.000 -0.000

vt 1.000 1.000 0.000
vt 0.836 1.000 0.000
vt 0.836 0.000 0.000
vt 1.000 0.000 0.000
vt 0.164 0.000 0.000
vt 0.164 1.000 0.000
vt 0.000 1.000 0.000
vt 0.000 0.000 0.000
vt 0.244 0.000 -0.268
vt 0.112 0.000 -0.732
vt 0.083 0.000 -1.000
vt 0.167 0.000 -1.000
vt 0.339 0.000 -0.732
vt 0.555 0.000 -0.268
vt 0.756 0.000 0.268
vt 0.888 0.000 0.732
vt 0.917 0.000 1.000
vt 0.833 0.000 1.000
vt 0.750 0.000 1.000
vt 0.445 0.000 0.268
vt 0.833 1.000 1.000
vt 0.750 1.000 1.000
vt 0.917 1.000 1.000
vt -0.083 0.000 1.000
vt 0.000 0.000 1.000
vt 0.000 1.000 1.000
vt -0.083 1.000 1.000
vt 0.083 0.000 1.000
vt 0.083 1.000 1.000
vt 0.167 0.000 1.000
vt 0.167 1.000 1.000
vt 0.250 0.000 1.000
vt 0.250 1.000 1.000
vt 0.333 0.000 1.000
vt 0.333 1.000 1.000
vt 0.417 0.000 1.000
vt 0.417 1.000 1.000
vt 0.500 0.000 1.000
vt 0.500 1.000 1.000
vt 0.583 0.000 1.000
vt 0.583 1.000 1.000
vt 0.667 0.000 1.000
vt 0.667 1.000 1.000
vt 0.888 1.000 0.732
vt 0.756 1.000 0.268
vt 0.555 1.000 -0.268
vt 0.339 1.000 -0.732
vt 0.167 1.000 -1.000
vt 0.083 1.000 -1.000
vt 0.112 1.000 -0.732
vt 0.244 1.000 -0.268

g ToyCar
f 1/1/1 2/2/1 3/3/1
f 3/3/1 4/4/1 1/1/1
f 5/5/2 6/6/2 7/7/2
f 7/7/2 8/8/2 5/5/2
f 3/5/3 5/6/3 8/7/3
f 8/7/3 4/8/3 3/5/3
f 9/8/4 10/4/4 11/1/4
f 11/1/4 12/7/4 9/8/4
f 13/5/5 14/6/5 11/7/5
f 11/7/5 10/8/5 13/5/5
f 1/8/6 4/4/6 8/1/6
f 8/1/6 7/7/6 1/8/6
f 10/7/1 9/8/1 15/5/1
f 15/5/1 13/6/1 10/7/1
f 12/4/2 11/1/2 14/2/2
f 14/2/2 16/3/2 12/4/2
f 9/4/3 12/1/3 16/2/3
f 16/2/3 15/3/3 9/4/3
f 1/4/5 7/1/5 6/2/5
f 6/2/5 2/3/5 1/4/5
f 2/2/1 13/6/1 15/5/1
f 15/5/1 3/3/1 2/2/1
f 17/5/2 18/3/2 19/2/2
f 19/2/2 20/6/2 17/5/2
f 3/5/3 15/3/3 16/2/3
f 16/2/3 5/6/3 3/5/3
f 13/5/5 2/3/5 6/2/5
f 6/2/5 14/6/5 13/5/5
f 6/6/7 5/5/7 17/5/7
f 17/5/7 20/6/7 6/6/7
f 5/5/8 16/3/8 18/3/8
f 18/3/8 17/5/8 5/5/8
f 16/3/9 14/2/9 19/2/9
f 19/2/9 18/3/9 16/3/9
f 14/2/10 6/6/10 20/6/10
f 20/6/10 19/2/10 14/2/10
f 21/9/5 22/10/5 23/11/11
f 23/11/11 24/12/12 25/13/5
f 25/13/5 26/14/13 27/15/5
f 23/11/11 25/13/5 27/15/5
f 27/15/5 28/16/5 29/17/11
f 29/17/11 30/18/12 31/19/5
f 27/15/5 29/17/11 31/19/5
f 23/11/11 27/15/5 31/19/5
f 21/9/5 23/11/11 31/19/5
f 32/20/13 21/9/5 31/19/5
f 31/19/14 30/18/15 33/21/15
f 33/21/15 34/22/14 31/19/14
f 30/18/15 29/17/16 35/23/16
f 35/23/16 33/21/15 30/18/15
f 29/24/16 28/25/17 36/26/17
f 36/26/17 35/27/16 29/24/16
f 28/25/17 27/28/18 37/29/18
f 37/29/18 36/26/17 28/25/17
f 27/28/18 26/30/19 38/31/19
f 38/31/19 37/29/18 27/28/18
f 26/30/19 25/32/20 39/33/20
f 39/33/20 38/31/19 26/30/19
f 25/32/20 24/34/21 40/35/21
f 40/35/21 39/33/20 25/32/20
f 24/34/21 23/36/22 41/37/22
f 41/37/22 40/35/21 24/34/21
f 23/36/22 22/38/23 42/39/23
f 42/39/23 41/37/22 23/36/22
f 22/38/23 21/40/24 43/41/24
f 43/41/24 42/39/23 22/38/23
f 21/40/24 32/42/25 44/43/25
f 44/43/25 43/41/24 21/40/24
f 32/42/25 31/19/14 34/22/14
f 34/22/14 44/43/25 32/42/25
f 34/22/26 33/21/26 35/23/26
f 35/23/26 36/44/3 37/45/27
f 37/45/27 38/46/27 39/47/26
f 35/23/26 37/45/27 39/47/26
f 39/47/26 40/48/26 41/49/26
f 41/49/26 42/50/3 43/51/27
f 39/47/26 41/49/26 43/51/27
f 35/23/26 39/47/26 43/51/27
f 34/22/26 35/23/26 43/51/27
f 44/43/27 34/22/26 43/51/27
f 45/9/11 46/10/11 47/11/5
f 47/11/5 48/12/5 49/13/5
f 49/13/5 50/14/5 51/15/11
f 47/11/5 49/13/5 51/15/11
f 51/15/11 52/16/11 53/17/11
f 53/17/11 54/18/5 55/19/11
f 51/15/11 53/17/11 55/19/11
f 47/11/5 51/15/11 55/19/11
f 45/9/11 47/11/5 55/19/11
f 56/20/5 45/9/11 55/19/11
f 55/19/14 54/18/15 57/21/15
f 57/21/15 58/22/28 55/19/14
f 54/18/15 53/17/16 59/23/16
f 59/23/16 57/21/15 54/18/15
f 53/24/16 52/25/17 60/26/29
f 60/26/29 59/27/16 53/24/16
f 52/25/17 51/28/18 61/29/18
f 61/29/18 60/26/29 52/25/17
f 51/28/18 50/30/19 62/31/19
f 62/31/19 61/29/18 51/28/18
f 50/30/19 49/32/30 63/33/20
f 63/33/20 62/31/19 50/30/19
f 49/32/30 48/34/21 64/35/21
f 64/35/21 63/33/20 49/32/30
f 48/34/21 47/36/22 65/37/22
f 65/37/22 64/35/21 48/34/21
f 47/36/22 46/38/23 66/39/23
f 66/39/23 65/37/22 47/36/22
f 46/38/23 45/40/24 67/41/24
f 67/41/24 66/39/23 46/38/23
f 45/40/24 56/42/25 68/43/25
f 68/43/25 67/41/24 45/40/24
f 56/42/25 55/19/14 58/22/28
f 58/22/28 68/43/25 56/42/25
f 58/22/26 57/21/3 59/23/26
f 59/23/26 60/44/3 61/45/3
f 61/45/3 62/46/3 63/47/26
f 59/23/26 61/45/3 63/47/26
f 63/47/26 64/48/26 65/49/26
f 65/49/26 66/50/3 67/51/27
f 63/47/26 65/49/26 67/51/27
f 59/23/26 63/47/26 67/51/27
f 58/22/26 59/23/26 67/51/27
f 68/43/27 58/22/26 67/51/27
f 69/9/5 70/10/5 71/11/11
f 71/11/11 72/12/12 73/13/5
f 73/13/5 74/14/13 75/15/5
f 71/11/11 73/13/5 75/15/5
f 75/15/5 76/16/5 77/17/11
f 77/17/11 78/18/12 79/19/5
f 75/15/5 77/17/11 79/19/5
f 71/11/11 75/15/5 79/19/5
f 69/9/5 71/11/11 79/19/5
f 80/20/13 69/9/5 79/19/5
f 79/19/14 78/18/15 81/21/15
f 81/21/15 82/22/14 79/19/14
f 78/18/15 77/17/16 83/23/16
f 83/23/16 81/21/15 78/18/15
f 77/24/16 76/25/17 84/26/17
f 84/26/17 83/27/16 77/24/16
f 76/25/17 75/28/18 85/29/18
f 85/29/18 84/26/17 76/25/17
f 75/28/18 74/30/19 86/31/19
f 86/31/19 85/29/18 75/28/18
f 74/30/19 73/32/20 87/33/20
f 87/33/20 86/31/19 74/30/19
f 73/32/20 72/34/21 88/35/21
f 88/35/21 87/33/20 73/32/20
f 72/34/21 71/36/22 89/37/22
f 89/37/22 88/35/21 72/34/21
f 71/36/22 70/38/23 90/39/23
f 90/39/23 89/37/22 71/36/22
f 70/38/23 69/40/24 91/41/24
f 91/41/24 90/39/23 70/38/23
f 69/40/24 80/42/25 92/43/25
f 92/43/25 91/41/24 69/40/24
f 80/42/25 79/19/14 82/22/14
f 82/22/14 92/43/25 80/42/25
f 82/22/26 81/21/26 83/23/26
f 83/23/26 84/44/3 85/45/27
f 85/45/27 86/46/27 87/47/26
f 83/23/26 85/45/27 87/47/26
f 87/47/26 88/48/26 89/49/26
f 89/49/26 90/50/3 91/51/27
f 87/47/26 89/49/26 91/51/27
f 83/23/26 87/47/26 91/51/27
f 82/22/26 83/23/26 91/51/27
f 92/43/27 82/22/26 91/51/27
f 93/9/11 94/10/11 95/11/5
f 95/11/5 96/12/5 97/13/5
f 97/13/5 98/14/5 99/15/11
f 95/11/5 97/13/5 99/15/11
f 99/15/11 100/16/11 101/17/11
f 101/17/11 102/18/5 103/19/11
f 99/15/11 101/17/11 103/19/11
f 95/11/5 99/15/11 103/19/11
f 93/9/11 95/11/5 103/19/11
f 104/20/5 93/9/11 103/19/11
f 103/19/14 102/18/15 105/21/15
f 105/21/15 106/22/28 103/19/14
f 102/18/15 101/17/16 107/23/16
f 107/23/16 105/21/15 102/18/15
f 101/24/16 100/25/17 108/26/29
f 108/26/29 107/27/16 101/24/16
f 100/25/17 99/28/18 109/29/18
f 109/29/18 108/26/29 100/25/17
f 99/28/18 98/30/19 110/31/19
f 110/31/19 109/29/18 99/28/18
f 98/30/19 97/32/30 111/33/20
f 111/33/20 110/31/19 98/30/19
f 97/32/30 96/34/21 112/35/21
f 112/35/21 111/33/20 97/32/30
f 96/34/21 95/36/22 113/37/22
f 113/37/22 112/35/21 96/34/21
f 95/36/22 94/38/23 114/39/23
f 114/39/23 113/37/22 95/36/22
f 94/38/23 93/40/24 115/41/24
f 115/41/24 114/39/23 94/38/23
f 93/40/24 104/42/25 116/43/25
f 116/43/25 115/41/24 93/40/24
f 104/42/25 103/19/14 106/22/28
f 106/22/28 116/43/25 104/42/25
f 106/22/26 105/21/3 107/23/26
f 107/23/26 108/44/3 109/45/3
f 109/45/3 110/46/3 111/47/26
f 107/23/26 109/45/3 111/47/26
f 111/47/26 112/48/26 113/49/26
f 113/49/26 114/50/3 115/51/27
f 111/47/26 113/49/26 115/51/27
f 107/23/26 111/47/26 115/51/27
f 106/22/26 107/23/26 115/51/27
f 116/43/27 106/22/26 115/51/27
