v -7.794367 -6.735848 -0.558487
v -7.794367 -6.735848 10.275335
v -7.161063 -6.735848 -0.558487
v -7.161063 -6.735848 10.275335
v -7.794367 -7.369153 -0.558487
v -7.794367 -7.369153 10.275335
v -7.161063 -7.369153 -0.558487
v -7.161063 -7.369153 10.275335
v -7.794367 7.361459 -0.558487
v -7.794367 7.361459 10.275335
v -7.161063 7.361459 -0.558487
v -7.161063 7.361459 10.275335
v -7.794367 6.728155 -0.558487
v -7.794367 6.728155 10.275335
v -7.161063 6.728155 -0.558487
v -7.161063 6.728155 10.275335
v 7.148414 7.361459 -0.558487
v 7.148414 7.361459 10.275335
v 7.781719 7.361459 -0.558487
v 7.781719 7.361459 10.275335
v 7.148414 6.728155 -0.558487
v 7.148414 6.728155 10.275335
v 7.781719 6.728155 -0.558487
v 7.781719 6.728155 10.275335
v 7.148414 -6.735848 -0.558487
v 7.148414 -6.735848 10.275335
v 7.781719 -6.735848 -0.558487
v 7.781719 -6.735848 10.275335
v 7.148414 -7.369153 -0.558487
v 7.148414 -7.369153 10.275335
v 7.781719 -7.369153 -0.558487
v 7.781719 -7.369153 10.275335
v -6.976072 -7.557692 8.387264
v -8.091581 -7.557692 8.387264
v -8.091581 7.596245 8.387264
v -6.976072 7.596241 8.387264
v -6.976072 -7.557695 9.160309
v -8.091581 -7.557687 9.160309
v -8.091581 7.596247 9.160309
v -6.976072 7.596243 9.160309
v 7.903984 -7.557692 8.387264
v 6.788475 -7.557692 8.387264
v 6.788475 7.596245 8.387264
v 7.903985 7.596241 8.387264
v 7.903984 -7.557695 9.160309
v 6.788475 -7.557687 9.160309
v 6.788475 7.596247 9.160309
v 7.903984 7.596243 9.160309
v 7.357846 5.507042 8.843460
v -7.796089 5.507042 8.843460
v -7.796088 6.531510 8.843460
v 7.357849 6.531510 8.843460
v 7.357842 5.507042 9.616505
v -7.796093 5.507043 9.616505
v -7.796086 6.531510 9.616505
v 7.357846 6.531510 9.616505
v 7.357846 3.507042 8.843460
v -7.796089 3.507042 8.843460
v -7.796088 4.531510 8.843460
v 7.357849 4.531510 8.843460
v 7.357842 3.507042 9.616505
v -7.796093 3.507043 9.616505
v -7.796086 4.531510 9.616505
v 7.357846 4.531510 9.616505
v 7.357846 1.507043 8.843460
v -7.796089 1.507043 8.843460
v -7.796088 2.531510 8.843460
v 7.357849 2.531510 8.843460
v 7.357842 1.507042 9.616505
v -7.796093 1.507043 9.616505
v -7.796086 2.531510 9.616505
v 7.357846 2.531510 9.616505
v 7.357846 -6.492958 8.843460
v -7.796089 -6.492958 8.843460
v -7.796088 -5.468490 8.843460
v 7.357849 -5.468490 8.843460
v 7.357842 -6.492958 9.616505
v -7.796093 -6.492957 9.616505
v -7.796086 -5.468490 9.616505
v 7.357846 -5.468490 9.616505
v 7.357846 -4.492958 8.843460
v -7.796089 -4.492958 8.843460
v -7.796088 -3.468490 8.843460
v 7.357849 -3.468490 8.843460
v 7.357842 -4.492958 9.616505
v -7.796093 -4.492957 9.616505
v -7.796086 -3.468490 9.616505
v 7.357846 -3.468490 9.616505
v 7.357846 -2.492958 8.843460
v -7.796089 -2.492958 8.843460
v -7.796088 -1.468490 8.843460
v 7.357849 -1.468490 8.843460
v 7.357842 -2.492958 9.616505
v -7.796093 -2.492957 9.616505
v -7.796086 -1.468490 9.616505
v 7.357846 -1.468490 9.616505
v 7.357846 -0.492957 8.843460
v -7.796089 -0.492957 8.843460
v -7.796088 0.531510 8.843460
v 7.357849 0.531510 8.843460
v 7.357842 -0.492958 9.616505
v -7.796093 -0.492957 9.616505
v -7.796086 0.531510 9.616505
v 7.357846 0.531510 9.616505
v -6.653174 1.867140 -0.033253
v -6.653174 1.867140 1.012101
v -6.087916 3.785599 -0.033253
v -6.087916 3.785599 1.012101
v -4.734715 1.301883 -0.033253
v -4.734715 1.301883 1.012101
v -4.169458 3.220341 -0.033253
v -4.169458 3.220341 1.012101
v -6.904324 2.007019 2.140657
v -6.797250 1.830572 3.165434
v -5.454842 3.382415 2.226024
v -5.347767 3.205968 3.250801
v -5.541593 0.594814 1.755117
v -5.434519 0.418367 2.779894
v -4.092111 1.970210 1.840484
v -3.985037 1.793763 2.865261
v -6.654268 2.948102 3.491557
v -6.812673 3.187583 4.496705
v -5.310411 4.422745 3.352000
v -5.468815 4.662226 4.357148
v -5.204372 1.677080 4.022877
v -5.362776 1.916561 5.028025
v -3.860515 3.151722 3.883320
v -4.018919 3.391203 4.888468
v -5.791192 2.539814 0.778202
v -5.791192 2.539814 6.986249
v -5.415243 2.923616 0.778202
v -5.415243 2.923616 6.986249
v -5.407389 2.163865 0.778202
v -5.407389 2.163865 6.986249
v -5.031440 2.547668 0.778202
v -5.031440 2.547668 6.986249
v -1.665531 6.076654 0.778202
v -1.665531 6.076654 6.986249
v -1.128276 6.076654 0.778202
v -1.128276 6.076654 6.986249
v -1.665531 5.539400 0.778202
v -1.665531 5.539400 6.986249
v -1.128276 5.539400 0.778202
v -1.128276 5.539400 6.986249
v -1.977804 6.978922 3.491557
v -1.917569 7.259662 4.496705
v 0.016026 7.050795 3.352000
v 0.076261 7.331534 4.357148
v -1.871216 5.053737 4.022877
v -1.810981 5.334476 5.028025
v 0.122614 5.125609 3.883320
v 0.182849 5.406349 4.888468
v -2.825072 6.499023 2.140657
v -2.876196 6.299062 3.165434
v -0.828230 6.425992 2.226024
v -0.879354 6.226030 3.250801
v -2.880337 4.537314 1.755117
v -2.931461 4.337352 2.779894
v -0.883495 4.464282 1.840484
v -0.934619 4.264320 2.865261
v -2.749254 6.221726 -0.033253
v -2.749254 6.221726 1.012101
v -0.983205 7.160378 -0.033253
v -0.983205 7.160378 1.012101
v -1.810602 4.455676 -0.033253
v -1.810602 4.455676 1.012101
v -0.044553 5.394329 -0.033253
v -0.044553 5.394329 1.012101
v 3.440550 -0.686330 5.647765
v 4.355030 1.609873 5.219212
v 3.393898 -0.734900 5.287976
v 4.308378 1.561303 4.859424
v 3.778189 -0.825462 5.622767
v 4.692669 1.470740 5.194215
v 3.731537 -0.874032 5.262979
v 4.646018 1.422170 4.834426
v 3.919706 2.673811 5.264254
v 3.767457 4.944423 4.208972
v 4.027300 2.532314 4.944277
v 3.875050 4.802925 3.888995
v 4.268867 2.738495 5.353056
v 4.116617 5.009106 4.297774
v 4.376461 2.596997 5.033079
v 4.224211 4.867609 3.977797
v 3.400661 -0.710375 4.840626
v 3.720232 1.750900 4.476655
v 3.473382 -0.772077 4.487232
v 3.792953 1.689198 4.123260
v 3.756357 -0.744845 4.919839
v 4.075928 1.716431 4.555868
v 3.829079 -0.806547 4.566445
v 4.148650 1.654729 4.202473
v 1.856231 -3.726096 4.207289
v 2.814565 -1.724808 5.377296
v 2.184279 -3.888245 4.215944
v 3.142614 -1.886957 5.385952
v 1.773696 -3.875798 4.530957
v 2.732030 -1.874510 5.700964
v 2.101744 -4.037947 4.539612
v 3.060079 -2.036659 5.709619
v 0.040159 -4.660388 0.985405
v 1.410294 -3.888244 2.939632
v 0.345166 -4.768264 0.814184
v 1.715301 -3.996121 2.768411
v 0.008822 -4.991523 1.138213
v 1.378956 -4.219380 3.092440
v 0.313829 -5.099401 0.966992
v 1.683963 -4.327257 2.921219
v -0.619296 -6.497821 2.058140
v -2.121614 -5.897836 1.020904
v 0.504931 -6.367723 0.505082
v -0.997387 -5.767738 -0.532154
v -0.204620 -4.676862 2.510856
v -1.706937 -4.076877 1.473620
v 0.919607 -4.546764 0.957798
v -0.582711 -3.946779 -0.079439
v 3.667673 6.848917 3.635402
v 2.186402 5.660248 3.928155
v 4.839196 5.605842 4.515798
v 3.357925 4.417173 4.808552
v 4.022878 5.991810 1.952548
v 2.541607 4.803142 2.245301
v 5.194401 4.748735 2.832944
v 3.713130 3.560067 3.125698
v 0.976359 -5.115030 4.723959
v 1.014514 -5.377875 2.820737
v 2.775598 -4.442490 4.667148
v 2.813753 -4.705335 2.763926
v 0.302503 -3.334188 4.464507
v 0.340657 -3.597033 2.561284
v 2.101742 -2.661647 4.407695
v 2.139896 -2.924492 2.504473
v 3.559137 -0.125242 6.178404
v 2.805738 -1.789410 6.774839
v 4.948658 -1.083513 5.259846
v 4.195259 -2.747681 5.856281
v 2.466241 -0.196388 4.599380
v 1.712842 -1.860555 5.195815
v 3.855762 -1.154659 3.680822
v 3.102363 -2.818827 4.277257
v 2.758499 2.976808 4.844677
v 3.233990 2.153152 6.514498
v 4.610665 3.362140 4.507332
v 5.086155 2.538484 6.177152
v 2.948740 1.283908 3.955465
v 3.424230 0.460252 5.625285
v 4.800905 1.669240 3.618119
v 5.276396 0.845584 5.287940
v 7.576967 -7.576968 -0.753305
v -7.576968 -7.576968 -0.753305
v -7.576966 7.576969 -0.753305
v 7.576971 7.576965 -0.753305
v 7.576963 -7.576972 0.019741
v -7.576972 -7.576963 0.019741
v -7.576965 7.576971 0.019741
v 7.576968 7.576967 0.019741

vn 0.0000 1.0000 0.0000
vn 1.0000 0.0000 0.0000
vn 0.0000 -1.0000 0.0000
vn -1.0000 0.0000 0.0000
vn 0.0000 0.0000 -1.0000
vn 0.0000 0.0000 1.0000
vn 0.0000 1.0000 0.0000
vn 1.0000 0.0000 0.0000
vn 0.0000 -1.0000 0.0000
vn -1.0000 0.0000 0.0000
vn 0.0000 0.0000 -1.0000
vn 0.0000 0.0000 1.0000
vn 0.0000 1.0000 0.0000
vn 1.0000 0.0000 0.0000
vn 0.0000 -1.0000 0.0000
vn -1.0000 0.0000 0.0000
vn 0.0000 0.0000 -1.0000
vn 0.0000 0.0000 1.0000
vn 0.0000 1.0000 0.0000
vn 1.0000 0.0000 0.0000
vn 0.0000 -1.0000 0.0000
vn -1.0000 0.0000 0.0000
vn 0.0000 0.0000 -1.0000
vn 0.0000 0.0000 1.0000
vn 0.0000 0.0000 -1.0000
vn 0.0000 0.0000 1.0000
vn 0.0000 -1.0000 -0.0000
vn -1.0000 0.0000 0.0000
vn 0.0000 1.0000 -0.0000
vn 1.0000 0.0000 0.0000
vn 0.0000 0.0000 -1.0000
vn 0.0000 0.0000 1.0000
vn 0.0000 -1.0000 -0.0000
vn -1.0000 0.0000 -0.0000
vn 0.0000 1.0000 -0.0000
vn 1.0000 0.0000 0.0000
vn 0.0000 0.0000 -1.0000
vn -0.0000 0.0000 1.0000
vn 0.0000 -1.0000 -0.0000
vn -1.0000 0.0000 -0.0000
vn 0.0000 1.0000 -0.0000
vn 1.0000 -0.0000 0.0000
vn 0.0000 0.0000 -1.0000
vn 0.0000 0.0000 1.0000
vn 0.0000 -1.0000 0.0000
vn -1.0000 0.0000 -0.0000
vn 0.0000 1.0000 -0.0000
vn 1.0000 -0.0000 0.0000
vn 0.0000 0.0000 -1.0000
vn 0.0000 0.0000 1.0000
vn 0.0000 -1.0000 -0.0000
vn -1.0000 0.0000 -0.0000
vn 0.0000 1.0000 -0.0000
vn 1.0000 -0.0000 0.0000
vn 0.0000 0.0000 -1.0000
vn -0.0000 0.0000 1.0000
vn 0.0000 -1.0000 -0.0000
vn -1.0000 0.0000 -0.0000
vn 0.0000 1.0000 0.0000
vn 1.0000 -0.0000 0.0000
vn 0.0000 0.0000 -1.0000
vn 0.0000 0.0000 1.0000
vn 0.0000 -1.0000 0.0000
vn -1.0000 0.0000 -0.0000
vn 0.0000 1.0000 -0.0000
vn 1.0000 -0.0000 0.0000
vn 0.0000 0.0000 -1.0000
vn -0.0000 0.0000 1.0000
vn 0.0000 -1.0000 0.0000
vn -1.0000 0.0000 -0.0000
vn 0.0000 1.0000 -0.0000
vn 1.0000 -0.0000 0.0000
vn 0.0000 0.0000 -1.0000
vn 0.0000 0.0000 1.0000
vn 0.0000 -1.0000 -0.0000
vn -1.0000 0.0000 -0.0000
vn 0.0000 1.0000 -0.0000
vn 1.0000 -0.0000 0.0000
vn -0.9592 0.2826 0.0000
vn 0.2826 0.9592 0.0000
vn 0.9592 -0.2826 0.0000
vn -0.2826 -0.9592 0.0000
vn 0.0000 0.0000 -1.0000
vn -0.0000 0.0000 1.0000
vn -0.6814 0.7061 0.1928
vn 0.7247 0.6877 0.0427
vn 0.6814 -0.7061 -0.1928
vn -0.7247 -0.6877 -0.0427
vn -0.1024 0.1688 -0.9803
vn 0.1024 -0.1688 0.9803
vn -0.7249 0.6355 -0.2657
vn 0.6719 0.7373 -0.0698
vn 0.7249 -0.6355 0.2657
vn -0.6719 -0.7373 0.0698
vn 0.1515 -0.2291 -0.9615
vn -0.1515 0.2291 0.9615
vn -0.7144 0.6998 0.0000
vn 0.6998 0.7144 0.0000
vn 0.7144 -0.6998 0.0000
vn -0.6998 -0.7144 0.0000
vn 0.0000 0.0000 -1.0000
vn -0.0000 0.0000 1.0000
vn 0.0000 1.0000 0.0000
vn 1.0000 0.0000 0.0000
vn 0.0000 -1.0000 0.0000
vn -1.0000 0.0000 0.0000
vn 0.0000 0.0000 -1.0000
vn 0.0000 0.0000 1.0000
vn -0.0533 0.9626 -0.2657
vn 0.9969 0.0359 -0.0698
vn 0.0533 -0.9626 0.2657
vn -0.9969 -0.0359 0.0698
vn -0.0576 -0.2686 -0.9615
vn 0.0576 0.2686 0.9615
vn 0.0276 0.9809 0.1928
vn 0.9984 -0.0365 0.0427
vn -0.0276 -0.9809 -0.1928
vn -0.9984 0.0365 -0.0427
vn 0.0489 0.1913 -0.9803
vn -0.0489 -0.1913 0.9803
vn -0.4693 0.8830 0.0000
vn 0.8830 0.4693 0.0000
vn 0.4693 -0.8830 0.0000
vn -0.8830 -0.4693 0.0000
vn -0.0000 0.0000 -1.0000
vn 0.0000 0.0000 1.0000
vn -0.9224 0.3801 0.0683
vn -0.1275 -0.1327 -0.9829
vn 0.9224 -0.3801 -0.0683
vn 0.1275 0.1327 0.9829
vn -0.3646 -0.9154 0.1708
vn 0.3646 0.9154 -0.1708
vn -0.1274 -0.1327 -0.9829
vn 0.1274 0.1327 0.9829
vn -0.9539 -0.1767 -0.2426
vn 0.2939 -0.3866 -0.8742
vn 0.9539 0.1767 0.2426
vn -0.2939 0.3866 0.8742
vn 0.0607 -0.9052 0.4207
vn -0.0607 0.9052 -0.4207
vn -0.9718 0.0942 -0.2164
vn 0.1987 -0.1686 -0.9655
vn 0.9718 -0.0942 0.2164
vn -0.1987 0.1686 0.9655
vn -0.1274 -0.9812 0.1451
vn 0.1274 0.9812 -0.1451
vn 0.2255 0.4090 -0.8842
vn 0.8962 -0.4430 0.0236
vn -0.2255 -0.4090 0.8842
vn -0.8962 0.4430 -0.0236
vn -0.3820 -0.7978 -0.4664
vn 0.3820 0.7978 0.4664
vn 0.0856 0.9047 -0.4175
vn 0.8333 -0.2947 -0.4678
vn -0.0856 -0.9047 0.4175
vn -0.8333 0.2947 0.4678
vn -0.5462 -0.3078 -0.7790
vn 0.5462 0.3078 0.7790
vn -0.2158 -0.9476 -0.2356
vn 0.5850 0.0677 -0.8082
vn 0.2158 0.9476 0.2356
vn -0.5850 -0.0677 0.8082
vn 0.7818 -0.3122 0.5398
vn -0.7818 0.3122 -0.5398
vn -0.1848 0.4460 0.8757
vn 0.6096 -0.6469 0.4581
vn 0.1848 -0.4460 -0.8757
vn -0.6096 0.6469 -0.4581
vn 0.7708 0.6186 -0.1523
vn -0.7708 -0.6186 0.1523
vn 0.3507 -0.9267 0.1350
vn 0.9363 0.3500 -0.0296
vn -0.3507 0.9267 -0.1350
vn -0.9363 -0.3500 0.0296
vn -0.0199 0.1368 0.9904
vn 0.0199 -0.1368 -0.9904
vn 0.5687 0.0370 0.8217
vn 0.7231 -0.4987 -0.4780
vn -0.5687 -0.0370 -0.8217
vn -0.7231 0.4987 0.4780
vn 0.3921 0.8660 -0.3104
vn -0.3921 -0.8660 0.3104
vn -0.0990 0.8810 0.4627
vn 0.9638 0.2005 -0.1755
vn 0.0990 -0.8810 -0.4627
vn -0.9638 -0.2005 0.1755
vn -0.2474 0.4286 -0.8689
vn 0.2474 -0.4286 0.8689
vn 0.0000 0.0000 -1.0000
vn 0.0000 0.0000 1.0000
vn 0.0000 -1.0000 -0.0000
vn -1.0000 0.0000 -0.0000
vn 0.0000 1.0000 -0.0000
vn 1.0000 -0.0000 0.0000

g scene

f 2//1 3//1 1//1
f 4//2 7//2 3//2
f 8//3 5//3 7//3
f 6//4 1//4 5//4
f 7//5 1//5 3//5
f 4//6 6//6 8//6
f 2//1 4//1 3//1
f 4//2 8//2 7//2
f 8//3 6//3 5//3
f 6//4 2//4 1//4
f 7//5 5//5 1//5
f 4//6 2//6 6//6
f 10//7 11//7 9//7
f 12//8 15//8 11//8
f 16//9 13//9 15//9
f 14//10 9//10 13//10
f 15//11 9//11 11//11
f 12//12 14//12 16//12
f 10//7 12//7 11//7
f 12//8 16//8 15//8
f 16//9 14//9 13//9
f 14//10 10//10 9//10
f 15//11 13//11 9//11
f 12//12 10//12 14//12
f 18//13 19//13 17//13
f 20//14 23//14 19//14
f 24//15 21//15 23//15
f 22//16 17//16 21//16
f 23//17 17//17 19//17
f 20//18 22//18 24//18
f 18//13 20//13 19//13
f 20//14 24//14 23//14
f 24//15 22//15 21//15
f 22//16 18//16 17//16
f 23//17 21//17 17//17
f 20//18 18//18 22//18
f 26//19 27//19 25//19
f 28//20 31//20 27//20
f 32//21 29//21 31//21
f 30//22 25//22 29//22
f 31//23 25//23 27//23
f 28//24 30//24 32//24
f 26//19 28//19 27//19
f 28//20 32//20 31//20
f 32//21 30//21 29//21
f 30//22 26//22 25//22
f 31//23 29//23 25//23
f 28//24 26//24 30//24
f 34//25 36//25 33//25
f 40//26 38//26 37//26
f 37//27 34//27 33//27
f 38//28 35//28 34//28
f 35//29 40//29 36//29
f 33//30 40//30 37//30
f 34//25 35//25 36//25
f 40//26 39//26 38//26
f 37//27 38//27 34//27
f 38//28 39//28 35//28
f 35//29 39//29 40//29
f 33//30 36//30 40//30
f 42//31 44//31 41//31
f 48//32 46//32 45//32
f 45//33 42//33 41//33
f 46//34 43//34 42//34
f 43//35 48//35 44//35
f 41//36 48//36 45//36
f 42//31 43//31 44//31
f 48//32 47//32 46//32
f 45//33 46//33 42//33
f 46//34 47//34 43//34
f 43//35 47//35 48//35
f 41//36 44//36 48//36
f 50//37 52//37 49//37
f 56//38 54//38 53//38
f 53//39 50//39 49//39
f 54//40 51//40 50//40
f 51//41 56//41 52//41
f 49//42 56//42 53//42
f 50//37 51//37 52//37
f 56//38 55//38 54//38
f 53//39 54//39 50//39
f 54//40 55//40 51//40
f 51//41 55//41 56//41
f 49//42 52//42 56//42
f 58//43 60//43 57//43
f 64//44 62//44 61//44
f 61//45 58//45 57//45
f 62//46 59//46 58//46
f 59//47 64//47 60//47
f 57//48 64//48 61//48
f 58//43 59//43 60//43
f 64//44 63//44 62//44
f 61//45 62//45 58//45
f 62//46 63//46 59//46
f 59//47 63//47 64//47
f 57//48 60//48 64//48
f 66//49 68//49 65//49
f 72//50 70//50 69//50
f 69//51 66//51 65//51
f 70//52 67//52 66//52
f 67//53 72//53 68//53
f 65//54 72//54 69//54
f 66//49 67//49 68//49
f 72//50 71//50 70//50
f 69//51 70//51 66//51
f 70//52 71//52 67//52
f 67//53 71//53 72//53
f 65//54 68//54 72//54
f 74//55 76//55 73//55
f 80//56 78//56 77//56
f 77//57 74//57 73//57
f 78//58 75//58 74//58
f 75//59 80//59 76//59
f 73//60 80//60 77//60
f 74//55 75//55 76//55
f 80//56 79//56 78//56
f 77//57 78//57 74//57
f 78//58 79//58 75//58
f 75//59 79//59 80//59
f 73//60 76//60 80//60
f 82//61 84//61 81//61
f 88//62 86//62 85//62
f 85//63 82//63 81//63
f 86//64 83//64 82//64
f 83//65 88//65 84//65
f 81//66 88//66 85//66
f 82//61 83//61 84//61
f 88//62 87//62 86//62
f 85//63 86//63 82//63
f 86//64 87//64 83//64
f 83//65 87//65 88//65
f 81//66 84//66 88//66
f 90//67 92//67 89//67
f 96//68 94//68 93//68
f 93//69 90//69 89//69
f 94//70 91//70 90//70
f 91//71 96//71 92//71
f 89//72 96//72 93//72
f 90//67 91//67 92//67
f 96//68 95//68 94//68
f 93//69 94//69 90//69
f 94//70 95//70 91//70
f 91//71 95//71 96//71
f 89//72 92//72 96//72
f 98//73 100//73 97//73
f 104//74 102//74 101//74
f 101//75 98//75 97//75
f 102//76 99//76 98//76
f 99//77 104//77 100//77
f 97//78 104//78 101//78
f 98//73 99//73 100//73
f 104//74 103//74 102//74
f 101//75 102//75 98//75
f 102//76 103//76 99//76
f 99//77 103//77 104//77
f 97//78 100//78 104//78
f 106//79 107//79 105//79
f 108//80 111//80 107//80
f 112//81 109//81 111//81
f 110//82 105//82 109//82
f 111//83 105//83 107//83
f 108//84 110//84 112//84
f 106//79 108//79 107//79
f 108//80 112//80 111//80
f 112//81 110//81 109//81
f 110//82 106//82 105//82
f 111//83 109//83 105//83
f 108//84 106//84 110//84
f 114//85 115//85 113//85
f 116//86 119//86 115//86
f 120//87 117//87 119//87
f 118//88 113//88 117//88
f 119//89 113//89 115//89
f 116//90 118//90 120//90
f 114//85 116//85 115//85
f 116//86 120//86 119//86
f 120//87 118//87 117//87
f 118//88 114//88 113//88
f 119//89 117//89 113//89
f 116//90 114//90 118//90
f 122//91 123//91 121//91
f 124//92 127//92 123//92
f 128//93 125//93 127//93
f 126//94 121//94 125//94
f 127//95 121//95 123//95
f 124//96 126//96 128//96
f 122//91 124//91 123//91
f 124//92 128//92 127//92
f 128//93 126//93 125//93
f 126//94 122//94 121//94
f 127//95 125//95 121//95
f 124//96 122//96 126//96
f 130//97 131//97 129//97
f 132//98 135//98 131//98
f 136//99 133//99 135//99
f 134//100 129//100 133//100
f 135//101 129//101 131//101
f 132//102 134//102 136//102
f 130//97 132//97 131//97
f 132//98 136//98 135//98
f 136//99 134//99 133//99
f 134//100 130//100 129//100
f 135//101 133//101 129//101
f 132//102 130//102 134//102
f 138//103 139//103 137//103
f 140//104 143//104 139//104
f 144//105 141//105 143//105
f 142//106 137//106 141//106
f 143//107 137//107 139//107
f 140//108 142//108 144//108
f 138//103 140//103 139//103
f 140//104 144//104 143//104
f 144//105 142//105 141//105
f 142//106 138//106 137//106
f 143//107 141//107 137//107
f 140//108 138//108 142//108
f 146//109 147//109 145//109
f 148//110 151//110 147//110
f 152//111 149//111 151//111
f 150//112 145//112 149//112
f 151//113 145//113 147//113
f 148//114 150//114 152//114
f 146//109 148//109 147//109
f 148//110 152//110 151//110
f 152//111 150//111 149//111
f 150//112 146//112 145//112
f 151//113 149//113 145//113
f 148//114 146//114 150//114
f 154//115 155//115 153//115
f 156//116 159//116 155//116
f 160//117 157//117 159//117
f 158//118 153//118 157//118
f 159//119 153//119 155//119
f 156//120 158//120 160//120
f 154//115 156//115 155//115
f 156//116 160//116 159//116
f 160//117 158//117 157//117
f 158//118 154//118 153//118
f 159//119 157//119 153//119
f 156//120 154//120 158//120
f 162//121 163//121 161//121
f 164//122 167//122 163//122
f 168//123 165//123 167//123
f 166//124 161//124 165//124
f 167//125 161//125 163//125
f 164//126 166//126 168//126
f 162//121 164//121 163//121
f 164//122 168//122 167//122
f 168//123 166//123 165//123
f 166//124 162//124 161//124
f 167//125 165//125 161//125
f 164//126 162//126 166//126
f 170//127 171//127 169//127
f 172//128 175//128 171//128
f 176//129 173//129 175//129
f 174//130 169//130 173//130
f 175//131 169//131 171//131
f 172//132 174//132 176//132
f 170//127 172//127 171//127
f 172//133 176//133 175//133
f 176//129 174//129 173//129
f 174//134 170//134 169//134
f 175//131 173//131 169//131
f 172//132 170//132 174//132
f 178//135 179//135 177//135
f 180//136 183//136 179//136
f 184//137 181//137 183//137
f 182//138 177//138 181//138
f 183//139 177//139 179//139
f 180//140 182//140 184//140
f 178//135 180//135 179//135
f 180//136 184//136 183//136
f 184//137 182//137 181//137
f 182//138 178//138 177//138
f 183//139 181//139 177//139
f 180//140 178//140 182//140
f 186//141 187//141 185//141
f 188//142 191//142 187//142
f 192//143 189//143 191//143
f 190//144 185//144 189//144
f 191//145 185//145 187//145
f 188//146 190//146 192//146
f 186//141 188//141 187//141
f 188//142 192//142 191//142
f 192//143 190//143 189//143
f 190//144 186//144 185//144
f 191//145 189//145 185//145
f 188//146 186//146 190//146
f 194//147 195//147 193//147
f 196//148 199//148 195//148
f 200//149 197//149 199//149
f 198//150 193//150 197//150
f 199//151 193//151 195//151
f 196//152 198//152 200//152
f 194//147 196//147 195//147
f 196//148 200//148 199//148
f 200//149 198//149 197//149
f 198//150 194//150 193//150
f 199//151 197//151 193//151
f 196//152 194//152 198//152
f 202//153 203//153 201//153
f 204//154 207//154 203//154
f 208//155 205//155 207//155
f 206//156 201//156 205//156
f 207//157 201//157 203//157
f 204//158 206//158 208//158
f 202//153 204//153 203//153
f 204//154 208//154 207//154
f 208//155 206//155 205//155
f 206//156 202//156 201//156
f 207//157 205//157 201//157
f 204//158 202//158 206//158
f 210//159 211//159 209//159
f 212//160 215//160 211//160
f 216//161 213//161 215//161
f 214//162 209//162 213//162
f 215//163 209//163 211//163
f 212//164 214//164 216//164
f 210//159 212//159 211//159
f 212//160 216//160 215//160
f 216//161 214//161 213//161
f 214//162 210//162 209//162
f 215//163 213//163 209//163
f 212//164 210//164 214//164
f 218//165 219//165 217//165
f 220//166 223//166 219//166
f 224//167 221//167 223//167
f 222//168 217//168 221//168
f 223//169 217//169 219//169
f 220//170 222//170 224//170
f 218//165 220//165 219//165
f 220//166 224//166 223//166
f 224//167 222//167 221//167
f 222//168 218//168 217//168
f 223//169 221//169 217//169
f 220//170 218//170 222//170
f 226//171 227//171 225//171
f 228//172 231//172 227//172
f 232//173 229//173 231//173
f 230//174 225//174 229//174
f 231//175 225//175 227//175
f 228//176 230//176 232//176
f 226//171 228//171 227//171
f 228//172 232//172 231//172
f 232//173 230//173 229//173
f 230//174 226//174 225//174
f 231//175 229//175 225//175
f 228//176 226//176 230//176
f 234//177 235//177 233//177
f 236//178 239//178 235//178
f 240//179 237//179 239//179
f 238//180 233//180 237//180
f 239//181 233//181 235//181
f 236//182 238//182 240//182
f 234//177 236//177 235//177
f 236//178 240//178 239//178
f 240//179 238//179 237//179
f 238//180 234//180 233//180
f 239//181 237//181 233//181
f 236//182 234//182 238//182
f 242//183 243//183 241//183
f 244//184 247//184 243//184
f 248//185 245//185 247//185
f 246//186 241//186 245//186
f 247//187 241//187 243//187
f 244//188 246//188 248//188
f 242//183 244//183 243//183
f 244//184 248//184 247//184
f 248//185 246//185 245//185
f 246//186 242//186 241//186
f 247//187 245//187 241//187
f 244//188 242//188 246//188
f 250//189 252//189 249//189
f 256//190 254//190 253//190
f 253//191 250//191 249//191
f 254//192 251//192 250//192
f 251//193 256//193 252//193
f 249//194 256//194 253//194
f 250//189 251//189 252//189
f 256//190 255//190 254//190
f 253//191 254//191 250//191
f 254//192 255//192 251//192
f 251//193 255//193 256//193
f 249//194 252//194 256//194
